<svg xmlns="http://www.w3.org/2000/svg" width="16" height="16" fill="#2B2D42" class="bi bi-twitter"><path d="M5.03 15c6.03 0 9.34-5 9.34-9.33v-.43A6.68 6.68 0 0016 3.54a6.66 6.66 0 01-1.89.52 3.3 3.3 0 001.45-1.82 6.53 6.53 0 01-2.09.8 3.29 3.29 0 00-5.6 2.99A9.32 9.32 0 011.12 2.6a3.29 3.29 0 001.02 4.38 3.32 3.32 0 01-1.49-.4v.04a3.29 3.29 0 002.63 3.22 3.2 3.2 0 01-.86.11 3.23 3.23 0 01-.62-.05 3.28 3.28 0 003.07 2.27 6.59 6.59 0 01-4.08 1.41 6.32 6.32 0 01-.78-.04A9.34 9.34 0 005.03 15z"/></svg>